<?xml version="1.0" standalone="no"?><!DOCTYPE svg PUBLIC "-//W3C//DTD SVG 1.1//EN" "http://www.w3.org/Graphics/SVG/1.1/DTD/svg11.dtd"><svg t="1569291977303" class="icon" viewBox="0 0 1024 1024" version="1.1" xmlns="http://www.w3.org/2000/svg" p-id="2416" xmlns:xlink="http://www.w3.org/1999/xlink" width="200" height="200"><defs><style type="text/css"></style></defs><path d="M513.572 735.376c-23.048 23.07-54.392 29.098-70.012 13.458l-169.708-169.9c-15.622-15.638-9.602-47.018 13.444-70.092L773.43 22.158c23.046-23.074 54.39-29.098 70.012-13.46l169.708 169.9c15.622 15.638 9.602 47.018-13.444 70.092L513.572 735.376z" p-id="2417"></path><path d="M413.212 792.524l-182.708-182.916c-7.55-7.56-18.542-10.532-28.874-7.802-10.326 2.73-18.422 10.75-21.26 21.056L110.82 875.41c-2.87 10.42 0.074 21.578 7.708 29.22 5.702 5.708 13.364 8.796 21.214 8.796 2.66 0 5.338-0.356 7.972-1.082l252.258-69.63c10.296-2.842 18.306-10.95 21.032-21.286C423.732 811.092 420.764 800.084 413.212 792.524z" p-id="2418"></path><path d="M0 924l1024 0 0 100-1024 0 0-100Z" p-id="2419"></path></svg>