<?xml version="1.0" standalone="no"?><!DOCTYPE svg PUBLIC "-//W3C//DTD SVG 1.1//EN" "http://www.w3.org/Graphics/SVG/1.1/DTD/svg11.dtd"><svg t="1569291810898" class="icon" viewBox="0 0 1024 1024" version="1.1" xmlns="http://www.w3.org/2000/svg" p-id="810" width="200" height="200" data-spm-anchor-id="a313x.7781069.0.i4" xmlns:xlink="http://www.w3.org/1999/xlink"><defs><style type="text/css"></style></defs><path d="M460.8 211.626667l-80.213333-133.12c-5.12-10.24-15.36-17.066667-27.306667-17.066667l-230.4 17.066667c-6.826667 0-13.653333 3.413333-18.773333 8.533333-3.413333 5.12-6.826667 11.946667-5.12 18.773333 0 5.12 3.413333 10.24 6.826666 15.36L226.986667 324.266667c81.92-92.16 232.106667-112.64 233.813333-112.64m440.32-122.88L672.426667 64.853333c-11.946667-1.706667-23.893333 5.12-27.306667 17.066667l-85.333333 129.706667s150.186667 25.6 230.4 119.466666l128-197.973333c3.413333-3.413333 6.826667-8.533333 6.826666-13.653333 1.706667-15.36-8.533333-29.013333-23.893333-30.72M689.493333 578.56l-69.973333 68.266667 17.066667 95.573333c5.12 32.426667-13.653333 46.08-42.666667 30.72l-87.04-44.373333-85.333333 44.373333c-29.013333 15.36-47.786667 1.706667-42.666667-30.72l17.066667-95.573333-69.973334-68.266667c-23.893333-22.186667-17.066667-44.373333 17.066667-49.493333l95.573333-13.653334 42.666667-87.04c15.36-29.013333 37.546667-29.013333 52.906667 0l42.666666 87.04 95.573334 13.653334c32.426667 5.12 40.96 27.306667 17.066666 49.493333M500.053333 256C305.493333 256 146.773333 414.72 146.773333 609.28c0 194.56 158.72 353.28 353.28 353.28 194.56 0 353.28-158.72 353.28-353.28C853.333333 414.72 694.613333 256 500.053333 256" p-id="811" data-spm-anchor-id="a313x.7781069.0.i3" class="selected"></path></svg>